<svg version="1.1" xmlns="http://www.w3.org/2000/svg" style="display: block;" viewBox="0 0 2482 2482" width="3508" height="2482" preserveAspectRatio="none">
<defs>
	<linearGradient id="Gradient1" gradientUnits="userSpaceOnUse" x1="1473.37" y1="685.574" x2="1475.23" y2="720.566">
		<stop class="stop0" offset="0" stop-opacity="1" stop-color="rgb(252,52,0)"/>
		<stop class="stop1" offset="1" stop-opacity="1" stop-color="rgb(249,121,0)"/>
	</linearGradient>
	<linearGradient id="Gradient2" gradientUnits="userSpaceOnUse" x1="1474.32" y1="748.952" x2="1474.25" y2="786.552">
		<stop class="stop0" offset="0" stop-opacity="1" stop-color="rgb(246,181,0)"/>
		<stop class="stop1" offset="1" stop-opacity="1" stop-color="rgb(242,255,0)"/>
	</linearGradient>
	<linearGradient id="Gradient3" gradientUnits="userSpaceOnUse" x1="1474.17" y1="641.641" x2="1471.79" y2="600.866">
		<stop class="stop0" offset="0" stop-opacity="1" stop-color="rgb(253,42,0)"/>
		<stop class="stop1" offset="1" stop-opacity="1" stop-color="rgb(249,125,0)"/>
	</linearGradient>
	<linearGradient id="Gradient4" gradientUnits="userSpaceOnUse" x1="1474.56" y1="576.156" x2="1476.17" y2="536.585">
		<stop class="stop0" offset="0" stop-opacity="1" stop-color="rgb(245,195,0)"/>
		<stop class="stop1" offset="1" stop-opacity="1" stop-color="rgb(243,251,0)"/>
	</linearGradient>
	<linearGradient id="Gradient5" gradientUnits="userSpaceOnUse" x1="1471.17" y1="605.046" x2="1468.71" y2="557.613">
		<stop class="stop0" offset="0" stop-opacity="1" stop-color="rgb(249,123,0)"/>
		<stop class="stop1" offset="1" stop-opacity="1" stop-color="rgb(244,212,0)"/>
	</linearGradient>
	<linearGradient id="Gradient6" gradientUnits="userSpaceOnUse" x1="1475.05" y1="719.386" x2="1475.76" y2="749.258">
		<stop class="stop0" offset="0" stop-opacity="1" stop-color="rgb(249,124,0)"/>
		<stop class="stop1" offset="1" stop-opacity="1" stop-color="rgb(246,183,0)"/>
	</linearGradient>
	<linearGradient id="Gradient7" gradientUnits="userSpaceOnUse" x1="1693.32" y1="685.84" x2="1647.93" y2="627.371">
		<stop class="stop0" offset="0" stop-opacity="1" stop-color="rgb(240,113,1)"/>
		<stop class="stop1" offset="1" stop-opacity="1" stop-color="rgb(243,145,3)"/>
	</linearGradient>
	<linearGradient id="Gradient8" gradientUnits="userSpaceOnUse" x1="1797.98" y1="1038.82" x2="1648.9" y2="696.087">
		<stop class="stop0" offset="0" stop-opacity="1" stop-color="rgb(237,5,3)"/>
		<stop class="stop1" offset="1" stop-opacity="1" stop-color="rgb(241,102,2)"/>
	</linearGradient>
	<linearGradient id="Gradient9" gradientUnits="userSpaceOnUse" x1="1779.54" y1="1242.52" x2="1457.13" y2="975.249">
		<stop class="stop0" offset="0" stop-opacity="1" stop-color="rgb(255,70,0)"/>
		<stop class="stop1" offset="1" stop-opacity="1" stop-color="rgb(255,146,0)"/>
	</linearGradient>
	<linearGradient id="Gradient10" gradientUnits="userSpaceOnUse" x1="981.564" y1="1646.21" x2="1018.63" y2="1706.82">
		<stop class="stop0" offset="0" stop-opacity="1" stop-color="rgb(236,101,1)"/>
		<stop class="stop1" offset="1" stop-opacity="1" stop-color="rgb(236,137,1)"/>
	</linearGradient>
	<linearGradient id="Gradient11" gradientUnits="userSpaceOnUse" x1="749.756" y1="1512.85" x2="1097.57" y2="1342.57">
		<stop class="stop0" offset="0" stop-opacity="1" stop-color="rgb(239,30,3)"/>
		<stop class="stop1" offset="1" stop-opacity="1" stop-color="rgb(238,105,1)"/>
	</linearGradient>
	<linearGradient id="Gradient12" gradientUnits="userSpaceOnUse" x1="1029.06" y1="781.349" x2="935.811" y2="623.437">
		<stop class="stop0" offset="0" stop-opacity="1" stop-color="rgb(244,222,1)"/>
		<stop class="stop1" offset="1" stop-opacity="1" stop-color="rgb(246,255,0)"/>
	</linearGradient>
	<linearGradient id="Gradient13" gradientUnits="userSpaceOnUse" x1="1094.26" y1="1140.69" x2="992.101" y2="1075.62">
		<stop class="stop0" offset="0" stop-opacity="1" stop-color="rgb(255,140,0)"/>
		<stop class="stop1" offset="1" stop-opacity="1" stop-color="rgb(255,216,0)"/>
	</linearGradient>
	<linearGradient id="Gradient14" gradientUnits="userSpaceOnUse" x1="1334.32" y1="1136.66" x2="1164.5" y2="1028.38">
		<stop class="stop0" offset="0" stop-opacity="1" stop-color="rgb(255,15,0)"/>
		<stop class="stop1" offset="1" stop-opacity="1" stop-color="rgb(255,141,0)"/>
	</linearGradient>
	<linearGradient id="Gradient15" gradientUnits="userSpaceOnUse" x1="1020.6" y1="1131.37" x2="865.917" y2="874.841">
		<stop class="stop0" offset="0" stop-opacity="1" stop-color="rgb(240,100,2)"/>
		<stop class="stop1" offset="1" stop-opacity="1" stop-color="rgb(245,219,1)"/>
	</linearGradient>
	<linearGradient id="Gradient16" gradientUnits="userSpaceOnUse" x1="966.523" y1="1652.63" x2="443.938" y2="1217">
		<stop class="stop0" offset="0" stop-opacity="1" stop-color="rgb(255,136,0)"/>
		<stop class="stop1" offset="1" stop-opacity="1" stop-color="rgb(255,255,0)"/>
	</linearGradient>
	<linearGradient id="Gradient17" gradientUnits="userSpaceOnUse" x1="1648.14" y1="1473.79" x2="1742.48" y2="1630.16">
		<stop class="stop0" offset="0" stop-opacity="1" stop-color="rgb(236,208,1)"/>
		<stop class="stop1" offset="1" stop-opacity="1" stop-color="rgb(235,255,0)"/>
	</linearGradient>
	<linearGradient id="Gradient18" gradientUnits="userSpaceOnUse" x1="1513.14" y1="1196.45" x2="1673.36" y2="1461.56">
		<stop class="stop0" offset="0" stop-opacity="1" stop-color="rgb(237,46,2)"/>
		<stop class="stop1" offset="1" stop-opacity="1" stop-color="rgb(236,203,1)"/>
	</linearGradient>
	<linearGradient id="Gradient19" gradientUnits="userSpaceOnUse" x1="1056.15" y1="1918.3" x2="867.97" y2="1761.55">
		<stop class="stop0" offset="0" stop-opacity="1" stop-color="rgb(255,93,0)"/>
		<stop class="stop1" offset="1" stop-opacity="1" stop-color="rgb(255,137,0)"/>
	</linearGradient>
	<linearGradient id="Gradient20" gradientUnits="userSpaceOnUse" x1="1899.1" y1="1966.67" x2="1320.96" y2="1543.1">
		<stop class="stop0" offset="0" stop-opacity="1" stop-color="rgb(255,0,0)"/>
		<stop class="stop1" offset="1" stop-opacity="1" stop-color="rgb(255,90,0)"/>
	</linearGradient>
</defs>
<path transform="translate(0,0)" fill="rgb(255,255,255)" d="M 0 0 L 2482 0 L 2482 2482 L 0 2482 L 0 0 z"/>
<path transform="translate(0,0)" fill="rgb(255,255,255)" d="M 994.978 583.811 C 1038.05 614.819 1077.49 679.58 1101.24 726.962 C 1132.39 786.388 1157.45 852.661 1180.49 915.72 C 1191.56 946.019 1203.61 977.421 1211.65 1008.56 C 1216.69 1012.29 1240.76 1008.41 1247.94 1007.29 C 1286.84 1001.23 1315.34 985.153 1338.9 953.706 C 1362.12 922.708 1367.97 896.512 1382.14 863.905 C 1388.8 976.365 1372.1 1104.78 1297.31 1196.06 C 1292.66 1201.74 1281.87 1212.01 1275.91 1216.43 C 1286.97 1244.66 1300.6 1272.07 1310.8 1298.07 L 1311.72 1299.34 C 1315.43 1304.5 1319.53 1313.77 1322.71 1319.48 C 1351.45 1371.08 1392.7 1422.47 1454.26 1433.04 C 1471.8 1436.06 1488.44 1436.12 1506.2 1435.35 C 1518 1435.07 1530.94 1436.33 1542.95 1435.91 C 1578.42 1434.45 1612.69 1422.68 1641.58 1402.04 C 1648.8 1396.95 1676.71 1374.45 1679.65 1366.66 C 1681.47 1365.52 1681.32 1365.57 1682.84 1363.99 C 1718.47 1326.81 1750.25 1241.99 1748.41 1191.29 C 1754.62 1134.57 1735.64 1076.46 1711.75 1026.05 C 1718.74 1031.63 1720.93 1040.06 1724.67 1047.94 C 1729.77 1058.62 1729.78 1070.73 1744.95 1061.37 C 1781.92 1038.55 1823.15 1016.65 1858.91 992.329 C 1860.18 984.129 1843.34 967.268 1843.91 956.178 C 1882.68 1015.87 1917.36 1136.37 1924.24 1207 C 1926.91 1234.44 1922.7 1292.57 1918.7 1320.16 C 1916.69 1332.82 1914.83 1344.88 1912.13 1357.43 C 1931.19 1380.58 1949.16 1403.55 1966.68 1427.94 C 1974.88 1439.52 1984.51 1449.86 1991.17 1462.54 C 2030.6 1537.61 2041.42 1627.33 2034.43 1710.58 C 2024.22 1832.09 1958.85 1921.52 1835.27 1942.1 C 1788.93 1949.81 1745.5 1947.84 1698.45 1947.84 L 1534.12 1947.84 L 1269.46 1947.82 C 1232.46 1947.82 1195.46 1947.86 1158.47 1947.88 C 1151.17 1947.89 1141.02 1948.35 1133.97 1947.57 C 1088.23 1948.79 1038.02 1947.82 991.984 1947.82 L 726.763 1947.81 C 664.502 1946.99 597.692 1924.22 554.511 1878.98 C 464.485 1784.67 444.298 1577.78 445.432 1455.14 C 448.989 1327.94 456.507 1178.81 554.027 1084.53 C 589.904 1049.85 631.264 1025.79 679.784 1013.67 C 715.095 1004.84 747.436 1006.64 783.39 1006.94 L 880.091 1007.9 C 906.788 944.692 930.68 888.102 951.48 822.516 C 977.178 740.949 987.418 668.232 994.978 583.811 z"/>
<path transform="translate(0,0)" fill="url(#Gradient20)" d="M 1912.13 1357.43 C 1931.19 1380.58 1949.16 1403.55 1966.68 1427.94 C 1974.88 1439.52 1984.51 1449.86 1991.17 1462.54 C 2030.6 1537.61 2041.42 1627.33 2034.43 1710.58 C 2024.22 1832.09 1958.85 1921.52 1835.27 1942.1 C 1788.93 1949.81 1745.5 1947.84 1698.45 1947.84 L 1534.12 1947.84 L 1269.46 1947.82 C 1232.46 1947.82 1195.46 1947.86 1158.47 1947.88 C 1151.17 1947.89 1141.02 1948.35 1133.97 1947.57 C 1088.23 1948.79 1038.02 1947.82 991.984 1947.82 L 726.763 1947.81 C 722.494 1943.63 724.285 1938.91 726.21 1933.96 C 731.891 1928.3 732.889 1931.38 737.998 1927.89 C 736.641 1909.91 749.134 1918.5 755.249 1902.23 C 756.159 1899.81 757.264 1898.2 758.628 1896.02 C 761.707 1895.62 761.979 1895.88 764.436 1894.13 C 768.934 1874.84 781.074 1873.94 792.648 1860.41 C 799.186 1852.78 804.161 1840.02 811.775 1832.63 C 817.636 1826.94 819.726 1819.01 828.358 1816.65 C 835.614 1814.44 833.195 1805.92 838.856 1799.69 L 843.554 1799.87 C 847.233 1796.52 848.064 1786.46 850.012 1784.51 C 854.289 1780.21 859.042 1779.88 863.569 1773.75 C 863.441 1770.48 862.949 1769.61 864.576 1766.96 C 866.375 1767.28 867.723 1767.49 869.507 1767.72 C 876.742 1758.95 880.692 1746.45 890.034 1739.83 C 894.522 1736.66 895.84 1733.37 897.946 1728.35 L 1241.8 1732.05 L 1339.06 1733.02 C 1353.26 1733.14 1379.16 1732.58 1392.54 1734.07 C 1405.26 1732.66 1456.81 1734.32 1472.25 1734.5 L 1638.21 1736.24 C 1665.6 1736.54 1706 1740.67 1731.28 1731.2 C 1824.33 1696.33 1878.49 1639.38 1839.59 1537.73 C 1875.28 1486.5 1900.05 1418.17 1912.13 1357.43 z"/>
<path transform="translate(0,0)" fill="url(#Gradient19)" d="M 897.946 1728.35 L 1241.8 1732.05 L 1339.06 1733.02 C 1353.26 1733.14 1379.16 1732.58 1392.54 1734.07 C 1377.28 1735.95 1357.28 1735 1341.59 1734.89 C 1311.29 1734.51 1280.99 1734.41 1250.69 1734.57 C 1234.96 1734.62 1215.7 1734.02 1200.5 1735.39 C 1198.12 1748.02 1187.02 1755.69 1178.72 1764.58 C 1175.71 1767.8 1179.15 1770.4 1175.67 1775.52 C 1172.45 1776.05 1171.07 1776.16 1167.81 1776.3 C 1166.01 1779.36 1165.93 1780.16 1164.94 1783.52 C 1162.48 1785.14 1162.56 1784.96 1159.6 1785.37 C 1154.2 1792.57 1154.21 1800.32 1145.61 1804.9 C 1137.43 1809.24 1144.02 1818.15 1137.16 1822.89 C 1135.31 1824.17 1129.36 1824.47 1126.92 1824.86 C 1121.5 1835.27 1122.99 1838.08 1113.07 1844.28 C 1097.72 1853.88 1109.19 1870.41 1087.82 1873.16 C 1086.43 1878.2 1087.42 1877.9 1084.12 1880.18 L 1078.67 1879.06 C 1077.28 1886.32 1082.36 1884.73 1074.96 1890.03 C 1064.63 1897.42 1060.07 1914.25 1048.88 1921.12 C 1048.04 1921.68 1031.61 1941.37 1030.85 1942.82 L 1031.24 1944.15 C 1054.06 1947.42 1114.67 1940.52 1133.97 1947.57 C 1088.23 1948.79 1038.02 1947.82 991.984 1947.82 L 726.763 1947.81 C 722.494 1943.63 724.285 1938.91 726.21 1933.96 C 731.891 1928.3 732.889 1931.38 737.998 1927.89 C 736.641 1909.91 749.134 1918.5 755.249 1902.23 C 756.159 1899.81 757.264 1898.2 758.628 1896.02 C 761.707 1895.62 761.979 1895.88 764.436 1894.13 C 768.934 1874.84 781.074 1873.94 792.648 1860.41 C 799.186 1852.78 804.161 1840.02 811.775 1832.63 C 817.636 1826.94 819.726 1819.01 828.358 1816.65 C 835.614 1814.44 833.195 1805.92 838.856 1799.69 L 843.554 1799.87 C 847.233 1796.52 848.064 1786.46 850.012 1784.51 C 854.289 1780.21 859.042 1779.88 863.569 1773.75 C 863.441 1770.48 862.949 1769.61 864.576 1766.96 C 866.375 1767.28 867.723 1767.49 869.507 1767.72 C 876.742 1758.95 880.692 1746.45 890.034 1739.83 C 894.522 1736.66 895.84 1733.37 897.946 1728.35 z"/>
<path transform="translate(0,0)" fill="url(#Gradient18)" d="M 1843.91 956.178 C 1882.68 1015.87 1917.36 1136.37 1924.24 1207 C 1926.91 1234.44 1922.7 1292.57 1918.7 1320.16 C 1916.69 1332.82 1914.83 1344.88 1912.13 1357.43 C 1900.05 1418.17 1875.28 1486.5 1839.59 1537.73 C 1785.25 1615.6 1715.77 1663.86 1621.02 1679.84 C 1533.34 1694.63 1457.97 1680.62 1380.05 1638.04 L 1378.92 1637.41 C 1296.37 1590.93 1228.22 1511.87 1182.37 1430.09 C 1176.86 1420.26 1160.92 1392.27 1157.97 1381.8 C 1153.28 1374.67 1147.14 1358.7 1143.44 1350.44 C 1126.57 1312.75 1116.69 1279.66 1106.76 1239.8 C 1112.79 1237.52 1130.06 1237.78 1137.61 1237.22 C 1174.43 1234.47 1213.15 1236.38 1249.44 1230.17 C 1258.51 1228.62 1268.64 1221.63 1275.91 1216.43 C 1286.97 1244.66 1300.6 1272.07 1310.8 1298.07 L 1311.72 1299.34 C 1315.43 1304.5 1319.53 1313.77 1322.71 1319.48 C 1351.45 1371.08 1392.7 1422.47 1454.26 1433.04 C 1471.8 1436.06 1488.44 1436.12 1506.2 1435.35 C 1518 1435.07 1530.94 1436.33 1542.95 1435.91 C 1578.42 1434.45 1612.69 1422.68 1641.58 1402.04 C 1648.8 1396.95 1676.71 1374.45 1679.65 1366.66 C 1681.47 1365.52 1681.32 1365.57 1682.84 1363.99 C 1718.47 1326.81 1750.25 1241.99 1748.41 1191.29 C 1754.62 1134.57 1735.64 1076.46 1711.75 1026.05 C 1718.74 1031.63 1720.93 1040.06 1724.67 1047.94 C 1729.77 1058.62 1729.78 1070.73 1744.95 1061.37 C 1781.92 1038.55 1823.15 1016.65 1858.91 992.329 C 1860.18 984.129 1843.34 967.268 1843.91 956.178 z"/>
<path transform="translate(0,0)" fill="url(#Gradient17)" d="M 1380.05 1638.04 C 1380.34 1637.62 1426.25 1610.5 1431.75 1607.13 L 1514.3 1556.61 C 1531.01 1546.4 1548.82 1539.73 1563.96 1526.59 C 1565.68 1525.1 1578.71 1519.1 1582.19 1517.07 L 1631.75 1487.74 C 1637.9 1484.09 1641.29 1479.64 1645.98 1476.61 C 1650.4 1473.75 1659.27 1471.27 1664.31 1468.07 C 1669.52 1464.76 1681.82 1455.65 1686.01 1453.38 C 1712.97 1438.77 1909.85 1316.51 1917.01 1315.87 L 1918.7 1320.16 C 1916.69 1332.82 1914.83 1344.88 1912.13 1357.43 C 1900.05 1418.17 1875.28 1486.5 1839.59 1537.73 C 1785.25 1615.6 1715.77 1663.86 1621.02 1679.84 C 1533.34 1694.63 1457.97 1680.62 1380.05 1638.04 z"/>
<path transform="translate(0,0)" fill="rgb(238,25,2)" d="M 1106.76 1239.8 C 1112.79 1237.52 1130.06 1237.78 1137.61 1237.22 C 1174.43 1234.47 1213.15 1236.38 1249.44 1230.17 C 1258.51 1228.62 1268.64 1221.63 1275.91 1216.43 C 1286.97 1244.66 1300.6 1272.07 1310.8 1298.07 C 1309.72 1305.76 1319.7 1316.63 1318.86 1320.36 C 1305.28 1325.16 1289.66 1337.26 1276.63 1344.76 C 1255.6 1356.86 1235.97 1369.96 1214.7 1382.03 C 1205.04 1387.51 1183.83 1404.52 1172.99 1402.99 C 1165.99 1402.01 1164.54 1382.87 1157.97 1381.8 C 1153.28 1374.67 1147.14 1358.7 1143.44 1350.44 C 1126.57 1312.75 1116.69 1279.66 1106.76 1239.8 z"/>
<path transform="translate(0,0)" fill="url(#Gradient16)" d="M 726.763 1947.81 C 664.502 1946.99 597.692 1924.22 554.511 1878.98 C 464.485 1784.67 444.298 1577.78 445.432 1455.14 C 448.989 1327.94 456.507 1178.81 554.027 1084.53 C 589.904 1049.85 631.264 1025.79 679.784 1013.67 C 715.095 1004.84 747.436 1006.64 783.39 1006.94 L 880.091 1007.9 C 854.315 1068.76 827.45 1130.62 806.615 1193.33 C 802.217 1206.56 794.028 1230.21 790.988 1243.67 C 699.373 1224.96 659.533 1315.49 645.842 1391.11 C 628.9 1484.7 634.378 1600.75 684.799 1683.74 C 696.063 1701.54 718.354 1722.85 739.368 1725.61 C 755.71 1727.75 776.634 1727.1 793.572 1727.29 L 897.946 1728.35 C 895.84 1733.37 894.522 1736.66 890.034 1739.83 C 880.692 1746.45 876.742 1758.95 869.507 1767.72 C 867.723 1767.49 866.375 1767.28 864.576 1766.96 C 862.949 1769.61 863.441 1770.48 863.569 1773.75 C 859.042 1779.88 854.289 1780.21 850.012 1784.51 C 848.064 1786.46 847.233 1796.52 843.554 1799.87 L 838.856 1799.69 C 833.195 1805.92 835.614 1814.44 828.358 1816.65 C 819.726 1819.01 817.636 1826.94 811.775 1832.63 C 804.161 1840.02 799.186 1852.78 792.648 1860.41 C 781.074 1873.94 768.934 1874.84 764.436 1894.13 C 761.979 1895.88 761.707 1895.62 758.628 1896.02 C 757.264 1898.2 756.159 1899.81 755.249 1902.23 C 749.134 1918.5 736.641 1909.91 737.998 1927.89 C 732.889 1931.38 731.891 1928.3 726.21 1933.96 C 724.285 1938.91 722.494 1943.63 726.763 1947.81 z"/>
<path transform="translate(0,0)" fill="url(#Gradient15)" d="M 994.978 583.811 C 1038.05 614.819 1077.49 679.58 1101.24 726.962 C 1132.39 786.388 1157.45 852.661 1180.49 915.72 C 1191.56 946.019 1203.61 977.421 1211.65 1008.56 C 1216.69 1012.29 1240.76 1008.41 1247.94 1007.29 C 1286.84 1001.23 1315.34 985.153 1338.9 953.706 C 1362.12 922.708 1367.97 896.512 1382.14 863.905 C 1388.8 976.365 1372.1 1104.78 1297.31 1196.06 C 1292.66 1201.74 1281.87 1212.01 1275.91 1216.43 C 1268.64 1221.63 1258.51 1228.62 1249.44 1230.17 C 1213.15 1236.38 1174.43 1234.47 1137.61 1237.22 C 1130.06 1237.78 1112.79 1237.52 1106.76 1239.8 C 1095.65 1241.43 1048.54 1240.98 1033.48 1241.6 C 1010.71 1243.07 987.243 1243.78 964.394 1244.72 C 977.04 1213.53 990.754 1172.88 1000.53 1140.94 L 998.272 1138.66 C 987.762 1142.88 978.771 1150.08 969.101 1155.83 C 951.157 1166.48 931.279 1177.29 914.538 1189.74 C 912.463 1191.29 911.117 1191.72 908.628 1192.34 C 907.53 1192.62 809.1 1251.97 801.121 1257.77 C 795.942 1261.53 790.077 1266.72 786.659 1272.16 C 777.602 1286.56 763.556 1369.34 761.299 1388.72 C 759.75 1402.03 760.252 1415.99 757.803 1429.12 C 757.377 1431.41 756.818 1432.57 755.284 1434.31 C 757.471 1374.39 773.542 1300.83 790.988 1243.67 C 794.028 1230.21 802.217 1206.56 806.615 1193.33 C 827.45 1130.62 854.315 1068.76 880.091 1007.9 C 906.788 944.692 930.68 888.102 951.48 822.516 C 977.178 740.949 987.418 668.232 994.978 583.811 z"/>
<path transform="translate(0,0)" fill="url(#Gradient14)" d="M 1211.65 1008.56 C 1216.69 1012.29 1240.76 1008.41 1247.94 1007.29 C 1286.84 1001.23 1315.34 985.153 1338.9 953.706 C 1362.12 922.708 1367.97 896.512 1382.14 863.905 C 1388.8 976.365 1372.1 1104.78 1297.31 1196.06 C 1292.66 1201.74 1281.87 1212.01 1275.91 1216.43 C 1268.64 1221.63 1258.51 1228.62 1249.44 1230.17 C 1213.15 1236.38 1174.43 1234.47 1137.61 1237.22 C 1130.06 1237.78 1112.79 1237.52 1106.76 1239.8 C 1095.65 1241.43 1048.54 1240.98 1033.48 1241.6 L 1030.81 1240.77 C 1031.69 1235.6 1037.99 1229.76 1041.08 1224.81 C 1049.56 1211.24 1058.2 1197.74 1066.84 1184.26 L 1153.06 1048.73 C 1157.52 1041.68 1175.9 1015.24 1177.42 1009.5 C 1185.21 1009.69 1206.91 1012.45 1211.65 1008.56 z"/>
<path transform="translate(0,0)" fill="url(#Gradient13)" d="M 1057.54 1004.57 C 1063.61 1007.22 1160.98 1009 1177.42 1009.5 C 1175.9 1015.24 1157.52 1041.68 1153.06 1048.73 L 1066.84 1184.26 C 1058.2 1197.74 1049.56 1211.24 1041.08 1224.81 C 1037.99 1229.76 1031.69 1235.6 1030.81 1240.77 L 1033.48 1241.6 C 1010.71 1243.07 987.243 1243.78 964.394 1244.72 C 977.04 1213.53 990.754 1172.88 1000.53 1140.94 C 1012.08 1105.02 1027.84 1043.14 1031.99 1005.56 C 1041 1003.79 1050.59 1006.71 1057.54 1004.57 z"/>
<path transform="translate(0,0)" fill="url(#Gradient12)" d="M 994.978 583.811 C 1038.05 614.819 1077.49 679.58 1101.24 726.962 L 1100.91 734.498 L 972.535 812.603 C 968.117 815.245 955.394 825.563 952.694 825.752 L 951.48 822.516 C 977.178 740.949 987.418 668.232 994.978 583.811 z"/>
<path transform="translate(0,0)" fill="rgb(255,255,255)" d="M 1031.99 1005.56 C 1034.83 988.536 1036.29 971.989 1037.97 954.82 C 1045.25 970.048 1051.87 988.701 1057.54 1004.57 C 1050.59 1006.71 1041 1003.79 1031.99 1005.56 z"/>
<path transform="translate(0,0)" fill="url(#Gradient11)" d="M 755.284 1434.31 C 756.818 1432.57 757.377 1431.41 757.803 1429.12 C 760.252 1415.99 759.75 1402.03 761.299 1388.72 C 763.556 1369.34 777.602 1286.56 786.659 1272.16 C 790.077 1266.72 795.942 1261.53 801.121 1257.77 C 809.1 1251.97 907.53 1192.62 908.628 1192.34 C 911.117 1191.72 912.463 1191.29 914.538 1189.74 C 931.279 1177.29 951.157 1166.48 969.101 1155.83 C 978.771 1150.08 987.762 1142.88 998.272 1138.66 L 1000.53 1140.94 C 990.754 1172.88 977.04 1213.53 964.394 1244.72 C 932.333 1338.16 877.873 1449.96 926.184 1546.07 C 934.2 1562.02 945.107 1575.88 955.99 1589.92 C 956.434 1603.13 997.182 1626.72 1003.25 1636.73 C 998.668 1639.84 988.459 1639.25 981.841 1647.84 C 979.475 1650.92 933.389 1676.5 933.376 1676.5 C 902.099 1675.57 864.683 1659.85 838.268 1643.05 C 827.897 1636.13 811.914 1618.65 805.14 1616.83 C 761.246 1574.09 753.352 1492.36 755.284 1434.31 z"/>
<path transform="translate(0,0)" fill="url(#Gradient10)" d="M 955.99 1589.92 L 957.369 1591.06 C 966.12 1598.4 975.824 1610.26 984.804 1617.66 C 1013.02 1640.91 1045.49 1661.41 1077.9 1678.12 C 996.166 1689.03 898.049 1691.57 828.85 1639.5 C 821.366 1633.87 810.856 1624.29 805.14 1616.83 C 811.914 1618.65 827.897 1636.13 838.268 1643.05 C 864.683 1659.85 902.099 1675.57 933.376 1676.5 C 933.389 1676.5 979.475 1650.92 981.841 1647.84 C 988.459 1639.25 998.668 1639.84 1003.25 1636.73 C 997.182 1626.72 956.434 1603.13 955.99 1589.92 z"/>
<path transform="translate(0,0)" fill="url(#Gradient9)" d="M 1679.65 1366.66 L 1678.44 1365.82 C 1497.27 1238.8 1425.03 1041.02 1561.7 845.89 C 1561.57 853.441 1561.61 860.994 1561.81 868.543 C 1566.25 1019.41 1647.12 1095.82 1748.41 1191.29 C 1750.25 1241.99 1718.47 1326.81 1682.84 1363.99 C 1681.32 1365.57 1681.47 1365.52 1679.65 1366.66 z"/>
<path transform="translate(0,0)" fill="url(#Gradient8)" d="M 1697.25 584.052 L 1718 682.23 C 1733.66 734.138 1749.59 783.589 1775.07 831.741 C 1788.22 856.578 1801.51 881.101 1815.87 905.271 C 1819.96 912.218 1842.61 951.157 1843.91 956.178 C 1843.34 967.268 1860.18 984.129 1858.91 992.329 C 1823.15 1016.65 1781.92 1038.55 1744.95 1061.37 C 1729.78 1070.73 1729.77 1058.62 1724.67 1047.94 C 1720.93 1040.06 1718.74 1031.63 1711.75 1026.05 C 1707.41 1020.41 1692.69 988.624 1689.38 981.447 C 1655.45 907.771 1628.98 835.756 1636.32 753.187 C 1641.84 692.664 1668.21 636.503 1697.25 584.052 z"/>
<path transform="translate(0,0)" fill="url(#Gradient7)" d="M 1697.25 584.052 L 1718 682.23 L 1715.55 681.406 C 1714.16 676.959 1713.96 671.311 1711.64 669.74 C 1705.93 682.57 1697.73 675.494 1692.1 682.508 C 1681.48 695.731 1661.41 696.629 1650.8 710.115 C 1640.2 722.682 1641.96 746.58 1636.32 753.187 C 1641.84 692.664 1668.21 636.503 1697.25 584.052 z"/>
<path transform="translate(0,0)" fill="url(#Gradient6)" d="M 1440.96 543.327 C 1458.74 531.645 1492.74 530.726 1509.28 544.502 C 1582.54 587.57 1582.1 739.027 1510.29 779.055 C 1486.19 793.825 1462.84 793.311 1438.42 779.765 C 1365.18 730.984 1364.97 583.131 1440.96 543.327 z"/>
<path transform="translate(0,0)" fill="rgb(244,220,0)" d="M 1440.96 543.327 C 1458.74 531.645 1492.74 530.726 1509.28 544.502 C 1582.54 587.57 1582.1 739.027 1510.29 779.055 C 1505.53 778.916 1496.23 779.301 1492.56 777.15 C 1495.48 773.956 1504.92 772.021 1507.58 767.296 L 1504.36 766.165 L 1508.19 763.174 C 1502.8 763.117 1502.21 761.376 1497.04 760.294 L 1495.12 759.906 C 1496.39 757.487 1498.11 757.495 1501.33 756.074 L 1500.53 754.909 L 1496.91 754.623 C 1501.45 747.115 1510.55 742.152 1511.58 738.458 C 1509.04 738.731 1509.5 738.742 1506.88 738.543 C 1516.84 720.306 1519.88 696.312 1515.86 676.262 C 1517.35 670.921 1516.66 655.366 1516.55 648.894 C 1506.84 648.697 1497.5 650.417 1488.47 649.5 C 1485.01 646.902 1486.47 648.513 1484.58 643.991 L 1482.59 643.682 C 1476.83 642.757 1475.26 642.694 1469.43 642.951 C 1468.85 643.509 1468.07 643.959 1467.77 644.703 C 1461.11 645.316 1455.08 645.824 1448.46 646.956 C 1447.91 632.39 1450.17 627.998 1454.13 613.846 C 1453.51 611.742 1452.99 609.957 1452.56 608.491 L 1446.24 608.877 C 1442.85 615.708 1439.98 622.113 1435.6 628.365 L 1419.79 628.303 C 1422.73 604.783 1424.33 596.274 1436.66 575.896 L 1433.12 575.554 L 1432.81 574.413 L 1436.65 571.467 C 1439.9 569.003 1441.38 568.58 1442.64 564.677 L 1438.02 562.138 L 1438.74 560.219 C 1441.79 558.053 1444.8 556.625 1445.89 553.267 C 1442.07 551.826 1440.82 552.166 1436.64 551.949 L 1436.18 550.945 C 1438.15 548.571 1438.76 547.929 1440.07 545.217 L 1440.96 543.327 z"/>
<path transform="translate(0,0)" fill="url(#Gradient5)" d="M 1440.96 543.327 C 1458.74 531.645 1492.74 530.726 1509.28 544.502 C 1512.08 548.656 1513.77 550.492 1513.77 555.567 C 1510.76 555.185 1509.12 553.423 1506.67 551.516 L 1504.39 552.685 L 1505.44 554.926 C 1510.89 556.811 1513.92 556.765 1518.36 560.148 L 1518.85 561.683 L 1517.55 562.508 C 1515.37 561.077 1513.74 559.325 1511.81 559.617 L 1512.14 564.609 C 1508.89 565.371 1509.05 564.993 1506.4 566.911 C 1504.34 566.641 1499.85 564.729 1497.68 563.904 L 1496.18 566.612 L 1498.34 569.5 C 1500.97 571.764 1503.41 573.385 1504.88 576.474 C 1502.79 576.846 1502.64 576.639 1500.94 577.939 C 1516.81 593.067 1517.07 628.454 1516.55 648.894 C 1506.84 648.697 1497.5 650.417 1488.47 649.5 C 1485.01 646.902 1486.47 648.513 1484.58 643.991 L 1482.59 643.682 C 1476.83 642.757 1475.26 642.694 1469.43 642.951 C 1468.85 643.509 1468.07 643.959 1467.77 644.703 C 1461.11 645.316 1455.08 645.824 1448.46 646.956 C 1447.91 632.39 1450.17 627.998 1454.13 613.846 C 1453.51 611.742 1452.99 609.957 1452.56 608.491 L 1446.24 608.877 C 1442.85 615.708 1439.98 622.113 1435.6 628.365 L 1419.79 628.303 C 1422.73 604.783 1424.33 596.274 1436.66 575.896 L 1433.12 575.554 L 1432.81 574.413 L 1436.65 571.467 C 1439.9 569.003 1441.38 568.58 1442.64 564.677 L 1438.02 562.138 L 1438.74 560.219 C 1441.79 558.053 1444.8 556.625 1445.89 553.267 C 1442.07 551.826 1440.82 552.166 1436.64 551.949 L 1436.18 550.945 C 1438.15 548.571 1438.76 547.929 1440.07 545.217 L 1440.96 543.327 z"/>
<path transform="translate(0,0)" fill="url(#Gradient4)" d="M 1440.96 543.327 C 1458.74 531.645 1492.74 530.726 1509.28 544.502 C 1512.08 548.656 1513.77 550.492 1513.77 555.567 C 1510.76 555.185 1509.12 553.423 1506.67 551.516 L 1504.39 552.685 L 1505.44 554.926 C 1510.89 556.811 1513.92 556.765 1518.36 560.148 L 1518.85 561.683 L 1517.55 562.508 C 1515.37 561.077 1513.74 559.325 1511.81 559.617 L 1512.14 564.609 C 1508.89 565.371 1509.05 564.993 1506.4 566.911 C 1504.34 566.641 1499.85 564.729 1497.68 563.904 C 1488.5 553.502 1461.13 557.375 1450.5 564.14 C 1448.48 567.164 1448.87 569.496 1448.8 573.182 C 1446.05 578.152 1440.08 579.083 1437.9 583.797 C 1441.88 583.446 1443.72 582.37 1447.53 580.952 L 1448.03 582.113 C 1445.06 587.808 1441.1 587.901 1436.91 592.347 L 1440.04 592.496 C 1442.31 590.359 1441.35 591.509 1442.97 589.091 L 1445.21 589.485 C 1447.55 593.481 1446.42 603.525 1446.24 608.877 C 1442.85 615.708 1439.98 622.113 1435.6 628.365 L 1419.79 628.303 C 1422.73 604.783 1424.33 596.274 1436.66 575.896 L 1433.12 575.554 L 1432.81 574.413 L 1436.65 571.467 C 1439.9 569.003 1441.38 568.58 1442.64 564.677 L 1438.02 562.138 L 1438.74 560.219 C 1441.79 558.053 1444.8 556.625 1445.89 553.267 C 1442.07 551.826 1440.82 552.166 1436.64 551.949 L 1436.18 550.945 C 1438.15 548.571 1438.76 547.929 1440.07 545.217 L 1440.96 543.327 z"/>
<path transform="translate(0,0)" fill="url(#Gradient3)" d="M 1452.56 608.491 L 1457.11 607.818 C 1459.94 603.447 1456.72 595.495 1463.49 596.888 C 1472.27 598.697 1489.49 598.411 1493.21 607.511 C 1490.77 609.625 1488.66 610.625 1488.88 614.082 C 1489.53 624.728 1485.12 633.576 1484.58 643.991 L 1482.59 643.682 C 1476.83 642.757 1475.26 642.694 1469.43 642.951 C 1468.85 643.509 1468.07 643.959 1467.77 644.703 C 1461.11 645.316 1455.08 645.824 1448.46 646.956 C 1447.91 632.39 1450.17 627.998 1454.13 613.846 C 1453.51 611.742 1452.99 609.957 1452.56 608.491 z"/>
<path transform="translate(0,0)" fill="rgb(244,220,0)" d="M 1438.42 779.765 C 1365.18 730.984 1364.97 583.131 1440.96 543.327 L 1440.07 545.217 C 1438.76 547.929 1438.15 548.571 1436.18 550.945 L 1436.64 551.949 C 1440.82 552.166 1442.07 551.826 1445.89 553.267 C 1444.8 556.625 1441.79 558.053 1438.74 560.219 L 1438.02 562.138 L 1442.64 564.677 C 1441.38 568.58 1439.9 569.003 1436.65 571.467 L 1432.81 574.413 L 1433.12 575.554 L 1436.66 575.896 C 1424.33 596.274 1422.73 604.783 1419.79 628.303 C 1418.95 634.026 1417 639.336 1416.16 645.12 C 1412.45 670.729 1417.45 694.282 1430.01 716.83 C 1433.75 716.922 1437.95 716.85 1441.56 717.467 C 1440.28 758.624 1456.88 750.544 1491.19 749.428 L 1491.26 752.998 C 1493.94 753.966 1494.15 754.222 1496.91 754.623 L 1500.53 754.909 L 1501.33 756.074 C 1498.11 757.495 1496.39 757.487 1495.12 759.906 L 1497.04 760.294 C 1502.21 761.376 1502.8 763.117 1508.19 763.174 L 1504.36 766.165 L 1507.58 767.296 C 1504.92 772.021 1495.48 773.956 1492.56 777.15 C 1496.23 779.301 1505.53 778.916 1510.29 779.055 C 1486.19 793.825 1462.84 793.311 1438.42 779.765 z"/>
<path transform="translate(0,0)" fill="url(#Gradient2)" d="M 1430.01 716.83 C 1433.75 716.922 1437.95 716.85 1441.56 717.467 C 1440.28 758.624 1456.88 750.544 1491.19 749.428 L 1491.26 752.998 C 1493.94 753.966 1494.15 754.222 1496.91 754.623 L 1500.53 754.909 L 1501.33 756.074 C 1498.11 757.495 1496.39 757.487 1495.12 759.906 L 1497.04 760.294 C 1502.21 761.376 1502.8 763.117 1508.19 763.174 L 1504.36 766.165 L 1507.58 767.296 C 1504.92 772.021 1495.48 773.956 1492.56 777.15 C 1496.23 779.301 1505.53 778.916 1510.29 779.055 C 1486.19 793.825 1462.84 793.311 1438.42 779.765 C 1441.62 778.9 1443.02 778.139 1446.36 778.463 L 1445.11 777.29 L 1445.62 775.522 C 1448.26 775.153 1447.97 775.451 1450.27 774.371 C 1447.13 771.774 1447.46 772.704 1442.07 772.797 L 1441.46 771.765 C 1443.64 771.114 1445.83 770.492 1448.02 769.899 C 1445.28 767.867 1443.16 766.261 1440.54 764.002 C 1442.33 759.904 1447.83 764.54 1453.06 762.214 C 1440.4 747.063 1434.59 738.997 1430.36 718.63 L 1430.01 716.83 z"/>
<path transform="translate(0,0)" fill="rgb(248,123,0)" d="M 1446.24 608.877 L 1452.56 608.491 C 1452.99 609.957 1453.51 611.742 1454.13 613.846 C 1450.17 627.998 1447.91 632.39 1448.46 646.956 C 1443.83 665.649 1447.65 666.018 1448.76 681.202 C 1449.8 687.887 1452.74 709.965 1457.72 713.038 C 1461.3 715.252 1463.02 716.36 1465.17 720.849 L 1463.68 723.28 C 1456.56 715.609 1451.66 718.544 1441.56 717.467 C 1437.95 716.85 1433.75 716.922 1430.01 716.83 C 1417.45 694.282 1412.45 670.729 1416.16 645.12 C 1417 639.336 1418.95 634.026 1419.79 628.303 L 1435.6 628.365 C 1439.98 622.113 1442.85 615.708 1446.24 608.877 z"/>
<path transform="translate(0,0)" fill="rgb(238,25,2)" d="M 1467.77 644.703 C 1468.07 643.959 1468.85 643.509 1469.43 642.951 C 1475.26 642.694 1476.83 642.757 1482.59 643.682 L 1484.58 643.991 C 1486.47 648.513 1485.01 646.902 1488.47 649.5 C 1497.5 650.417 1506.84 648.697 1516.55 648.894 C 1516.66 655.366 1517.35 670.921 1515.86 676.262 C 1509.11 675.82 1494.13 674.367 1488.56 677.42 C 1484.45 679.017 1483.84 678.422 1481.85 681.415 L 1482.56 684.896 C 1477.59 685.138 1471.19 686.095 1466.98 683.992 C 1468.52 681.627 1468.58 682.587 1468.25 680.679 C 1462.05 677.425 1455.49 680.246 1448.76 681.202 C 1447.65 666.018 1443.83 665.649 1448.46 646.956 C 1455.08 645.824 1461.11 645.316 1467.77 644.703 z"/>
<path transform="translate(0,0)" fill="url(#Gradient1)" d="M 1448.76 681.202 C 1455.49 680.246 1462.05 677.425 1468.25 680.679 C 1468.58 682.587 1468.52 681.627 1466.98 683.992 C 1471.19 686.095 1477.59 685.138 1482.56 684.896 L 1481.85 681.415 C 1483.84 678.422 1484.45 679.017 1488.56 677.42 C 1495.87 692.158 1495.84 693.156 1487.48 705.432 C 1491.46 708.306 1490.39 716.74 1488.98 720.922 C 1489.23 722.413 1489.68 723.43 1489.28 724.508 C 1486.65 726.676 1486.07 727.45 1484.34 730.394 L 1483.04 728.128 C 1473.17 724.969 1470.58 735.371 1463.68 723.28 L 1465.17 720.849 C 1463.02 716.36 1461.3 715.252 1457.72 713.038 C 1452.74 709.965 1449.8 687.887 1448.76 681.202 z"/>
<path transform="translate(0,0)" fill="rgb(248,123,0)" d="M 1489.28 724.508 C 1481.82 723.486 1477.31 727.249 1467.96 723.877 C 1476.06 723.533 1481.27 723.581 1488.98 720.922 C 1489.23 722.413 1489.68 723.43 1489.28 724.508 z"/>
</svg>